<svg xmlns="http://www.w3.org/2000/svg" xmlns:xlink="http://www.w3.org/1999/xlink" width="500" zoomAndPan="magnify" viewBox="0 0 375 374.999991" height="500" preserveAspectRatio="xMidYMid meet" version="1.0"><defs><g/><clipPath id="717ea68534"><path d="M 112.046875 79.007812 L 262.796875 79.007812 L 262.796875 225 L 112.046875 225 Z M 112.046875 79.007812 " clip-rule="nonzero"/></clipPath><clipPath id="ebca7cf3e3"><path d="M 112.046875 163 L 174 163 L 174 226.757812 L 112.046875 226.757812 Z M 112.046875 163 " clip-rule="nonzero"/></clipPath><clipPath id="ff159a7408"><path d="M 201 163 L 262.796875 163 L 262.796875 226.757812 L 201 226.757812 Z M 201 163 " clip-rule="nonzero"/></clipPath></defs><g clip-path="url(#717ea68534)"><path fill="#ccae50" d="M 203.554688 223.949219 L 204.410156 223.664062 L 204.835938 223.523438 L 205.261719 223.378906 L 206.113281 223.050781 L 206.917969 222.671875 L 207.34375 222.480469 L 207.722656 222.292969 L 208.53125 221.863281 L 209.289062 221.390625 C 209.429688 221.296875 209.570312 221.25 209.667969 221.15625 L 210.046875 220.917969 C 210.28125 220.726562 210.566406 220.585938 210.804688 220.398438 L 211.5625 219.828125 C 211.703125 219.734375 211.796875 219.636719 211.941406 219.542969 L 212.320312 219.257812 C 212.554688 219.070312 212.792969 218.878906 213.03125 218.644531 L 213.691406 218.027344 C 213.789062 217.933594 213.929688 217.839844 214.023438 217.695312 L 214.355469 217.363281 C 214.59375 217.128906 214.78125 216.9375 215.019531 216.703125 C 215.445312 216.226562 215.871094 215.753906 216.25 215.28125 C 217.054688 214.285156 217.765625 213.246094 218.476562 212.15625 C 219.804688 209.929688 220.941406 207.511719 221.652344 204.953125 C 222.078125 203.582031 222.359375 202.160156 222.597656 200.738281 C 223.734375 200.171875 224.824219 199.554688 225.960938 198.9375 C 227.996094 197.800781 229.988281 196.570312 231.976562 195.246094 C 233.917969 193.917969 235.859375 192.496094 237.707031 191.027344 C 239.554688 189.511719 241.402344 187.949219 243.15625 186.292969 C 244.90625 184.585938 246.566406 182.789062 248.128906 180.894531 C 249.691406 178.996094 251.207031 177.007812 252.582031 174.925781 C 253.953125 172.792969 255.1875 170.613281 256.371094 168.339844 C 257.507812 166.019531 258.453125 163.652344 259.308594 161.234375 C 260.113281 158.773438 260.773438 156.261719 261.296875 153.703125 C 261.769531 151.144531 262.101562 148.542969 262.195312 145.9375 C 262.292969 143.332031 262.195312 140.726562 261.914062 138.167969 C 261.722656 136.890625 261.582031 135.609375 261.296875 134.332031 C 261.058594 133.050781 260.679688 131.867188 260.347656 130.636719 C 260.539062 131.914062 260.773438 133.148438 260.824219 134.425781 C 260.964844 135.703125 261.011719 136.984375 261.105469 138.214844 C 261.152344 140.773438 261.011719 143.285156 260.726562 145.792969 C 260.445312 148.304688 259.96875 150.765625 259.355469 153.183594 C 258.738281 155.597656 257.980469 157.917969 257.128906 160.242188 C 256.226562 162.515625 255.1875 164.742188 254.097656 166.871094 C 252.960938 169.003906 251.679688 171.039062 250.355469 173.03125 C 248.980469 174.972656 247.558594 176.867188 246.042969 178.667969 C 244.480469 180.464844 242.871094 182.125 241.210938 183.78125 C 239.554688 185.390625 237.800781 186.957031 236.003906 188.425781 C 234.203125 189.890625 232.355469 191.265625 230.460938 192.59375 C 228.566406 193.917969 226.671875 195.148438 224.683594 196.382812 C 224.113281 196.714844 223.496094 197.09375 222.929688 197.421875 C 223.117188 194.628906 222.929688 191.785156 222.457031 188.992188 C 221.933594 186.339844 221.128906 183.78125 220.039062 181.367188 C 218.996094 179.046875 217.71875 176.867188 216.34375 174.828125 L 220.941406 171.515625 C 223.402344 169.714844 225.914062 167.914062 228.375 166.019531 C 230.839844 164.125 233.207031 162.089844 235.578125 160.003906 C 236.761719 158.914062 237.898438 157.824219 238.988281 156.6875 C 240.125 155.550781 241.164062 154.367188 242.253906 153.136719 C 244.339844 150.625 246.234375 147.972656 247.9375 145.082031 C 248.792969 143.664062 249.550781 142.148438 250.261719 140.632812 L 250.78125 139.496094 C 250.875 139.304688 250.96875 139.117188 251.019531 138.925781 L 251.253906 138.308594 C 251.398438 137.929688 251.585938 137.503906 251.726562 137.125 L 252.15625 135.894531 C 252.203125 135.703125 252.296875 135.515625 252.34375 135.277344 L 252.535156 134.664062 C 252.675781 134.238281 252.769531 133.859375 252.914062 133.429688 L 253.242188 132.199219 C 253.292969 132.011719 253.339844 131.773438 253.386719 131.582031 L 253.527344 130.96875 C 253.621094 130.542969 253.71875 130.117188 253.765625 129.6875 L 253.953125 128.410156 C 254 128.171875 254 127.984375 254.050781 127.746094 L 254.097656 127.085938 C 254.144531 126.65625 254.191406 126.230469 254.238281 125.804688 C 254.378906 124.050781 254.378906 122.347656 254.238281 120.59375 C 254.191406 119.742188 254.050781 118.890625 253.953125 118.035156 C 253.8125 117.183594 253.671875 116.332031 253.480469 115.527344 C 253.101562 113.867188 252.582031 112.257812 251.964844 110.695312 C 251.347656 109.132812 250.589844 107.664062 249.738281 106.242188 C 249.3125 105.53125 248.839844 104.867188 248.363281 104.207031 C 247.890625 103.589844 247.371094 102.925781 246.800781 102.359375 C 245.710938 101.222656 244.480469 100.226562 243.25 99.375 C 244.433594 100.371094 245.523438 101.457031 246.519531 102.738281 C 246.992188 103.351562 247.464844 104.015625 247.890625 104.632812 C 248.316406 105.296875 248.746094 106.007812 249.074219 106.714844 C 249.832031 108.136719 250.402344 109.605469 250.921875 111.167969 C 251.398438 112.730469 251.777344 114.296875 252.058594 115.90625 C 252.203125 116.710938 252.296875 117.515625 252.390625 118.320312 C 252.4375 119.125 252.535156 119.933594 252.535156 120.738281 C 252.582031 122.347656 252.484375 123.957031 252.296875 125.566406 C 252.25 125.949219 252.203125 126.375 252.105469 126.753906 L 252.011719 127.367188 C 251.964844 127.558594 251.917969 127.746094 251.917969 127.984375 L 251.679688 129.167969 C 251.585938 129.546875 251.492188 129.972656 251.398438 130.351562 L 251.253906 130.921875 C 251.207031 131.109375 251.160156 131.300781 251.113281 131.488281 L 250.78125 132.625 C 250.640625 133.003906 250.542969 133.382812 250.402344 133.761719 L 250.210938 134.332031 C 250.164062 134.519531 250.070312 134.710938 250.023438 134.898438 L 249.597656 135.988281 C 249.453125 136.367188 249.265625 136.699219 249.125 137.078125 L 248.886719 137.648438 C 248.792969 137.835938 248.695312 138.027344 248.648438 138.167969 L 248.128906 139.257812 C 247.417969 140.679688 246.660156 142.050781 245.855469 143.378906 C 244.246094 146.03125 242.351562 148.542969 240.3125 150.863281 C 236.285156 155.503906 231.644531 159.484375 226.8125 163.226562 C 224.398438 165.121094 221.980469 166.917969 219.519531 168.765625 L 214.640625 172.367188 C 212.175781 169.144531 209.476562 166.257812 206.730469 163.507812 C 206.019531 162.796875 205.308594 162.089844 204.597656 161.378906 C 204.644531 161.332031 204.691406 161.28125 204.742188 161.28125 C 210.566406 156.734375 216.394531 152.09375 221.792969 146.695312 C 224.445312 143.945312 227.003906 141.058594 229.324219 137.882812 C 231.644531 134.710938 233.679688 131.300781 235.292969 127.558594 C 236.902344 123.863281 238.132812 119.933594 238.75 115.859375 C 239.082031 113.820312 239.222656 111.738281 239.222656 109.699219 C 239.222656 107.617188 239.082031 105.578125 238.703125 103.542969 C 238.324219 101.507812 237.800781 99.515625 237.042969 97.667969 C 236.285156 95.773438 235.339844 94.023438 234.25 92.410156 C 233.160156 90.800781 231.882812 89.332031 230.460938 88.101562 C 229.039062 86.871094 227.476562 85.875 225.820312 85.210938 C 227.429688 86.066406 228.898438 87.203125 230.175781 88.527344 C 231.503906 89.804688 232.640625 91.320312 233.632812 92.980469 C 234.628906 94.589844 235.433594 96.34375 236.050781 98.191406 C 236.664062 100.039062 237.09375 101.933594 237.328125 103.875 C 237.566406 105.816406 237.660156 107.757812 237.566406 109.699219 C 237.472656 111.640625 237.28125 113.585938 236.902344 115.480469 C 236.191406 119.269531 234.914062 122.964844 233.300781 126.421875 C 231.644531 129.832031 229.65625 133.050781 227.429688 136.035156 C 225.15625 139.019531 222.691406 141.769531 220.039062 144.324219 C 217.433594 146.929688 214.640625 149.347656 211.84375 151.714844 C 209.003906 154.082031 206.113281 156.308594 203.175781 158.535156 C 202.894531 158.773438 202.609375 158.960938 202.324219 159.199219 C 198.203125 155.316406 193.988281 151.574219 189.820312 147.785156 C 190.246094 147.40625 190.671875 147.027344 191.050781 146.648438 C 194.507812 143.332031 197.96875 140.015625 201.28125 136.460938 C 202.941406 134.710938 204.550781 132.863281 206.113281 130.96875 C 207.675781 129.074219 209.191406 127.132812 210.660156 125.140625 C 212.128906 123.152344 213.503906 121.070312 214.78125 118.9375 L 215.257812 118.132812 L 215.730469 117.328125 C 216.0625 116.757812 216.34375 116.238281 216.675781 115.667969 C 217.292969 114.578125 217.859375 113.441406 218.382812 112.257812 C 219.472656 109.9375 220.417969 107.523438 221.082031 105.011719 C 221.746094 102.5 222.171875 99.847656 222.171875 97.195312 C 222.171875 94.542969 221.792969 91.890625 220.941406 89.378906 C 220.085938 86.917969 218.808594 84.644531 217.007812 82.890625 C 216.109375 82.039062 215.160156 81.28125 214.117188 80.757812 C 213.078125 80.191406 211.988281 79.8125 210.851562 79.574219 C 209.714844 79.386719 208.578125 79.339844 207.441406 79.527344 C 206.304688 79.71875 205.214844 80.144531 204.21875 80.757812 C 205.261719 80.238281 206.351562 79.90625 207.441406 79.8125 C 208.53125 79.71875 209.667969 79.8125 210.757812 80.097656 C 211.84375 80.378906 212.886719 80.808594 213.835938 81.375 C 214.78125 81.945312 215.683594 82.703125 216.488281 83.554688 C 218.050781 85.257812 219.1875 87.484375 219.851562 89.855469 C 220.511719 92.222656 220.796875 94.734375 220.65625 97.195312 C 220.5625 99.660156 220.085938 102.121094 219.375 104.441406 C 218.667969 106.8125 217.71875 109.039062 216.582031 111.214844 C 216.015625 112.304688 215.445312 113.347656 214.828125 114.4375 C 214.546875 114.957031 214.214844 115.480469 213.882812 116 L 213.410156 116.757812 L 212.933594 117.515625 C 211.609375 119.554688 210.234375 121.542969 208.765625 123.4375 C 207.296875 125.332031 205.78125 127.179688 204.21875 129.027344 C 202.65625 130.824219 201.046875 132.578125 199.386719 134.285156 C 196.074219 137.695312 192.660156 140.960938 189.15625 144.183594 C 188.589844 144.703125 188.019531 145.226562 187.402344 145.792969 C 186.835938 145.273438 186.265625 144.75 185.652344 144.183594 C 182.148438 141.011719 178.6875 137.742188 175.421875 134.285156 C 173.761719 132.578125 172.152344 130.824219 170.589844 129.027344 C 169.027344 127.226562 167.511719 125.378906 166.042969 123.4375 C 164.574219 121.542969 163.199219 119.554688 161.875 117.515625 L 161.398438 116.757812 L 160.925781 116 C 160.59375 115.480469 160.261719 114.957031 159.980469 114.4375 C 159.363281 113.394531 158.792969 112.304688 158.226562 111.214844 C 157.136719 109.039062 156.140625 106.765625 155.433594 104.441406 C 154.722656 102.074219 154.246094 99.660156 154.152344 97.195312 C 154.105469 94.402344 154.34375 91.890625 155.003906 89.523438 C 155.667969 87.152344 156.804688 84.976562 158.367188 83.222656 C 159.171875 82.371094 160.027344 81.613281 161.019531 81.042969 C 162.015625 80.476562 163.058594 80 164.101562 79.765625 C 165.1875 79.480469 166.277344 79.386719 167.414062 79.480469 C 168.503906 79.574219 169.640625 79.90625 170.636719 80.429688 C 169.640625 79.8125 168.550781 79.386719 167.414062 79.195312 C 166.277344 79.007812 165.140625 79.007812 164.003906 79.242188 C 162.867188 79.480469 161.777344 79.859375 160.738281 80.429688 C 159.695312 80.996094 158.699219 81.707031 157.847656 82.558594 C 156.09375 84.3125 154.769531 86.585938 153.914062 89.046875 C 153.0625 91.511719 152.683594 94.210938 152.683594 96.863281 C 152.683594 99.515625 153.109375 102.167969 153.773438 104.679688 C 154.4375 107.191406 155.382812 109.652344 156.472656 111.925781 C 156.996094 113.0625 157.609375 114.199219 158.179688 115.335938 C 158.464844 115.90625 158.792969 116.425781 159.125 116.996094 L 159.601562 117.800781 L 160.074219 118.605469 C 161.351562 120.738281 162.726562 122.820312 164.195312 124.808594 C 165.664062 126.800781 167.179688 128.789062 168.742188 130.636719 C 170.304688 132.53125 171.914062 134.332031 173.574219 136.132812 C 176.890625 139.683594 180.347656 143.046875 183.804688 146.316406 C 184.230469 146.695312 184.65625 147.074219 185.035156 147.453125 C 180.867188 151.242188 176.652344 154.984375 172.53125 158.867188 C 172.246094 158.628906 171.960938 158.441406 171.679688 158.203125 C 168.742188 155.929688 165.851562 153.703125 163.011719 151.382812 C 160.167969 149.0625 157.421875 146.597656 154.816406 143.992188 C 152.164062 141.4375 149.699219 138.640625 147.425781 135.703125 C 145.199219 132.722656 143.164062 129.546875 141.554688 126.089844 C 139.941406 122.632812 138.664062 118.984375 137.953125 115.148438 C 137.574219 113.253906 137.386719 111.3125 137.289062 109.367188 C 137.195312 107.425781 137.289062 105.4375 137.527344 103.542969 C 137.765625 101.601562 138.191406 99.707031 138.804688 97.859375 C 139.421875 96.011719 140.226562 94.257812 141.222656 92.648438 C 142.214844 91.039062 143.351562 89.523438 144.679688 88.195312 C 146.003906 86.871094 147.472656 85.734375 149.039062 84.878906 C 147.378906 85.589844 145.816406 86.585938 144.394531 87.769531 C 142.972656 89 141.695312 90.46875 140.605469 92.082031 C 139.515625 93.691406 138.570312 95.441406 137.8125 97.335938 C 137.054688 99.234375 136.53125 101.222656 136.152344 103.210938 C 135.773438 105.246094 135.632812 107.332031 135.632812 109.367188 C 135.632812 111.453125 135.773438 113.488281 136.105469 115.527344 C 136.722656 119.601562 137.953125 123.53125 139.5625 127.226562 C 141.175781 130.921875 143.210938 134.378906 145.53125 137.550781 C 147.851562 140.726562 150.363281 143.613281 153.0625 146.363281 C 158.414062 151.761719 164.289062 156.402344 170.117188 160.953125 C 170.164062 161 170.210938 161.046875 170.257812 161.046875 C 169.546875 161.757812 168.835938 162.46875 168.125 163.175781 C 165.378906 165.925781 162.679688 168.8125 160.214844 172.035156 L 155.335938 168.625 C 152.875 166.824219 150.410156 164.976562 148.042969 163.082031 C 143.210938 159.386719 138.570312 155.410156 134.542969 150.71875 C 132.507812 148.398438 130.660156 145.9375 129 143.234375 C 128.148438 141.910156 127.4375 140.535156 126.726562 139.117188 L 126.207031 138.027344 C 126.113281 137.835938 126.015625 137.695312 125.96875 137.503906 L 125.734375 136.9375 C 125.589844 136.558594 125.402344 136.226562 125.257812 135.847656 L 124.832031 134.757812 C 124.785156 134.566406 124.691406 134.378906 124.644531 134.1875 L 124.453125 133.621094 C 124.3125 133.242188 124.21875 132.863281 124.074219 132.484375 L 123.742188 131.347656 C 123.695312 131.15625 123.648438 130.96875 123.601562 130.777344 L 123.460938 130.210938 C 123.363281 129.832031 123.269531 129.453125 123.175781 129.027344 L 122.9375 127.84375 C 122.890625 127.652344 122.84375 127.464844 122.84375 127.226562 L 122.75 126.609375 C 122.703125 126.230469 122.605469 125.804688 122.558594 125.425781 C 122.371094 123.816406 122.273438 122.207031 122.324219 120.59375 C 122.324219 119.789062 122.417969 118.984375 122.464844 118.179688 C 122.558594 117.375 122.652344 116.570312 122.796875 115.761719 C 123.03125 114.152344 123.460938 112.589844 123.933594 111.027344 C 124.453125 109.511719 125.023438 107.996094 125.78125 106.574219 C 126.160156 105.863281 126.539062 105.199219 126.964844 104.488281 C 127.390625 103.828125 127.863281 103.164062 128.339844 102.59375 C 129.285156 101.363281 130.421875 100.226562 131.605469 99.234375 C 130.328125 100.085938 129.144531 101.078125 128.054688 102.214844 C 127.484375 102.785156 127.011719 103.402344 126.492188 104.0625 C 126.015625 104.726562 125.542969 105.390625 125.117188 106.101562 C 124.265625 107.472656 123.507812 108.988281 122.890625 110.554688 C 122.273438 112.117188 121.753906 113.726562 121.375 115.382812 C 121.1875 116.238281 121.042969 117.042969 120.902344 117.894531 C 120.808594 118.746094 120.664062 119.601562 120.617188 120.453125 C 120.476562 122.15625 120.476562 123.910156 120.617188 125.664062 C 120.664062 126.089844 120.710938 126.515625 120.757812 126.941406 L 120.808594 127.605469 C 120.808594 127.84375 120.855469 128.03125 120.902344 128.269531 L 121.089844 129.546875 C 121.1875 129.972656 121.234375 130.398438 121.328125 130.824219 L 121.46875 131.441406 C 121.515625 131.632812 121.566406 131.867188 121.613281 132.058594 L 121.945312 133.289062 C 122.039062 133.714844 122.179688 134.09375 122.324219 134.519531 L 122.511719 135.136719 C 122.558594 135.324219 122.652344 135.5625 122.703125 135.753906 L 123.128906 136.984375 C 123.269531 137.363281 123.410156 137.789062 123.601562 138.167969 L 123.839844 138.785156 C 123.933594 138.972656 124.027344 139.164062 124.074219 139.351562 L 124.597656 140.488281 C 125.304688 142.003906 126.0625 143.519531 126.917969 144.941406 C 128.574219 147.832031 130.515625 150.484375 132.601562 152.992188 C 133.644531 154.226562 134.734375 155.410156 135.871094 156.546875 C 136.957031 157.683594 138.144531 158.773438 139.28125 159.863281 C 141.601562 161.992188 144.015625 163.984375 146.480469 165.878906 C 148.941406 167.773438 151.40625 169.570312 153.914062 171.371094 L 158.511719 174.6875 C 157.136719 176.722656 155.859375 178.902344 154.816406 181.222656 C 153.726562 183.640625 152.921875 186.199219 152.398438 188.851562 C 151.925781 191.597656 151.738281 194.441406 151.925781 197.28125 C 151.359375 196.949219 150.742188 196.570312 150.175781 196.238281 C 148.230469 195.054688 146.289062 193.777344 144.394531 192.449219 C 142.5 191.125 140.652344 189.75 138.851562 188.28125 C 137.054688 186.8125 135.347656 185.25 133.644531 183.640625 C 131.984375 182.03125 130.328125 180.324219 128.8125 178.523438 C 127.296875 176.722656 125.828125 174.828125 124.5 172.886719 C 123.128906 170.945312 121.894531 168.863281 120.757812 166.730469 C 119.621094 164.597656 118.628906 162.371094 117.726562 160.097656 C 116.875 157.777344 116.117188 155.457031 115.5 153.042969 C 114.933594 150.625 114.460938 148.164062 114.128906 145.652344 C 113.84375 143.140625 113.703125 140.632812 113.75 138.074219 C 113.796875 136.792969 113.84375 135.515625 114.035156 134.285156 C 114.128906 133.003906 114.363281 131.773438 114.507812 130.496094 C 114.175781 131.726562 113.796875 132.957031 113.558594 134.1875 C 113.273438 135.421875 113.132812 136.746094 112.945312 138.027344 C 112.566406 140.679688 112.46875 143.285156 112.566406 145.890625 C 112.707031 148.492188 113.039062 151.097656 113.464844 153.65625 C 113.984375 156.214844 114.648438 158.726562 115.453125 161.1875 C 116.257812 163.652344 117.253906 166.019531 118.390625 168.292969 C 119.527344 170.566406 120.808594 172.746094 122.179688 174.878906 C 123.601562 176.960938 125.070312 178.949219 126.632812 180.84375 C 128.242188 182.738281 129.902344 184.539062 131.605469 186.246094 C 133.359375 187.902344 135.207031 189.511719 137.054688 190.980469 C 138.949219 192.449219 140.84375 193.871094 142.785156 195.199219 C 144.773438 196.476562 146.761719 197.707031 148.800781 198.890625 C 149.890625 199.507812 151.027344 200.125 152.164062 200.691406 C 152.398438 202.113281 152.730469 203.535156 153.109375 204.90625 C 153.867188 207.464844 154.957031 209.882812 156.285156 212.105469 C 156.996094 213.195312 157.707031 214.285156 158.511719 215.234375 C 158.890625 215.753906 159.316406 216.179688 159.742188 216.65625 C 159.980469 216.890625 160.167969 217.082031 160.40625 217.316406 L 160.738281 217.648438 C 160.832031 217.742188 160.972656 217.839844 161.066406 217.980469 L 161.730469 218.597656 C 161.96875 218.785156 162.207031 218.976562 162.441406 219.210938 L 162.820312 219.496094 C 162.964844 219.589844 163.058594 219.6875 163.199219 219.78125 L 163.957031 220.347656 C 164.195312 220.539062 164.480469 220.679688 164.714844 220.871094 L 165.09375 221.105469 C 165.238281 221.203125 165.332031 221.25 165.472656 221.34375 L 166.230469 221.816406 L 167.035156 222.242188 L 167.414062 222.433594 L 167.84375 222.621094 L 168.648438 223 L 169.5 223.332031 L 169.925781 223.476562 L 170.351562 223.617188 L 171.203125 223.902344 L 172.058594 224.136719 C 172.625 224.28125 173.195312 224.375 173.808594 224.46875 C 173.953125 224.515625 174.09375 224.515625 174.234375 224.515625 L 174.664062 224.566406 C 174.945312 224.613281 175.230469 224.660156 175.5625 224.660156 L 176.460938 224.707031 C 176.605469 224.707031 176.746094 224.707031 176.890625 224.707031 L 177.316406 224.707031 L 178.214844 224.660156 C 178.5 224.660156 178.785156 224.613281 179.066406 224.566406 C 179.636719 224.515625 180.25 224.421875 180.820312 224.328125 C 181.105469 224.28125 181.386719 224.1875 181.671875 224.136719 C 181.957031 224.042969 182.242188 223.996094 182.527344 223.902344 L 183.378906 223.617188 L 183.804688 223.476562 L 184.230469 223.285156 L 185.035156 222.953125 C 185.320312 222.8125 185.558594 222.671875 185.839844 222.574219 C 186.363281 222.339844 186.882812 222.007812 187.355469 221.722656 C 187.878906 222.007812 188.351562 222.339844 188.871094 222.574219 C 189.15625 222.71875 189.394531 222.859375 189.679688 222.953125 L 190.484375 223.285156 L 190.910156 223.476562 L 191.335938 223.617188 L 192.1875 223.902344 C 192.472656 223.996094 192.757812 224.042969 193.039062 224.136719 C 193.324219 224.1875 193.609375 224.28125 193.894531 224.328125 C 194.460938 224.421875 195.03125 224.566406 195.644531 224.566406 C 195.929688 224.613281 196.214844 224.613281 196.5 224.660156 L 197.398438 224.707031 L 197.824219 224.707031 C 197.96875 224.707031 198.109375 224.707031 198.25 224.707031 L 199.152344 224.660156 C 199.433594 224.660156 199.71875 224.613281 200.050781 224.566406 L 200.476562 224.515625 C 200.621094 224.515625 200.761719 224.46875 200.902344 224.46875 C 201.472656 224.375 202.089844 224.28125 202.65625 224.136719 Z M 213.976562 176.535156 C 213.976562 176.582031 214.023438 176.582031 214.023438 176.628906 C 215.351562 178.570312 216.582031 180.65625 217.578125 182.789062 C 218.570312 184.964844 219.28125 187.238281 219.753906 189.609375 C 220.371094 192.640625 220.464844 195.859375 220.132812 198.988281 C 219.707031 199.222656 219.234375 199.507812 218.808594 199.746094 C 216.773438 200.835938 214.78125 201.875 212.699219 202.917969 C 210.660156 203.960938 208.578125 204.953125 206.492188 205.902344 C 205.261719 206.472656 204.078125 207.085938 202.847656 207.65625 C 203.035156 207.277344 203.226562 206.851562 203.414062 206.421875 C 203.605469 205.902344 203.746094 205.382812 203.839844 204.8125 C 204.265625 202.632812 204.171875 200.40625 203.792969 198.324219 C 203.605469 197.28125 203.367188 196.238281 203.082031 195.246094 C 202.941406 194.722656 202.75 194.25 202.5625 193.777344 C 202.46875 193.539062 202.371094 193.304688 202.277344 193.066406 L 201.992188 192.355469 C 201.234375 190.507812 200.335938 188.660156 199.339844 186.957031 C 204.078125 183.640625 208.8125 180.230469 213.550781 176.867188 Z M 191.714844 194.109375 C 191.808594 193.304688 192.1875 192.59375 192.425781 191.835938 C 192.804688 190.886719 192.992188 189.890625 192.851562 188.898438 C 192.710938 187.902344 192.1875 186.957031 191.429688 186.292969 C 191.003906 185.914062 190.484375 185.628906 189.914062 185.390625 C 190.007812 184.871094 190.199219 184.351562 190.4375 183.925781 C 190.53125 183.925781 190.625 183.972656 190.71875 183.972656 C 191.667969 183.972656 192.472656 183.214844 192.472656 182.21875 C 192.472656 181.273438 191.714844 180.464844 190.71875 180.464844 C 189.773438 180.464844 188.96875 181.222656 188.96875 182.21875 C 188.96875 182.597656 189.109375 182.976562 189.347656 183.261719 C 189.015625 183.828125 188.824219 184.445312 188.683594 185.109375 C 188.542969 185.109375 188.445312 185.0625 188.304688 185.0625 C 188.257812 185.0625 188.164062 185.0625 188.113281 185.0625 C 188.113281 184.019531 188.113281 183.023438 188.113281 181.980469 C 188.730469 181.699219 189.15625 181.082031 189.15625 180.417969 C 189.15625 179.472656 188.398438 178.667969 187.402344 178.667969 C 186.457031 178.667969 185.652344 179.425781 185.652344 180.417969 C 185.652344 181.175781 186.125 181.839844 186.835938 182.078125 C 186.835938 183.070312 186.835938 184.066406 186.835938 185.0625 C 186.597656 185.0625 186.363281 185.109375 186.125 185.15625 C 185.984375 184.492188 185.792969 183.875 185.460938 183.308594 C 185.699219 183.023438 185.839844 182.644531 185.839844 182.265625 C 185.839844 181.320312 185.082031 180.515625 184.089844 180.515625 C 183.140625 180.515625 182.335938 181.273438 182.335938 182.265625 C 182.335938 183.214844 183.09375 184.019531 184.089844 184.019531 C 184.183594 184.019531 184.277344 184.019531 184.371094 183.972656 C 184.609375 184.445312 184.800781 184.917969 184.894531 185.488281 C 183.898438 185.867188 183 186.53125 182.429688 187.523438 C 182.195312 187.949219 182.003906 188.472656 181.910156 188.992188 C 181.769531 189.988281 181.957031 190.933594 182.335938 191.882812 C 182.621094 192.640625 183 193.398438 183.09375 194.25 C 183.09375 194.296875 183.09375 194.34375 183.09375 194.441406 C 183.140625 196.335938 183.234375 198.230469 183.285156 200.171875 C 183.332031 201.828125 183.234375 203.4375 182.574219 205.003906 C 181.957031 206.472656 180.960938 207.796875 179.683594 208.792969 C 178.453125 209.738281 176.746094 209.882812 175.421875 209.074219 C 175.324219 209.027344 175.230469 208.933594 175.136719 208.886719 C 174.804688 208.648438 174.519531 208.316406 174.285156 208.035156 C 174 207.703125 173.808594 207.371094 173.621094 206.992188 C 173.429688 206.613281 173.289062 206.234375 173.148438 205.808594 C 173.003906 205.382812 172.910156 204.953125 172.863281 204.527344 C 172.578125 202.777344 172.71875 200.882812 173.097656 199.035156 C 173.289062 198.132812 173.527344 197.1875 173.808594 196.335938 C 173.953125 195.90625 174.140625 195.433594 174.285156 195.007812 C 174.378906 194.769531 174.472656 194.582031 174.566406 194.34375 L 174.851562 193.683594 C 175.65625 191.929688 176.558594 190.222656 177.550781 188.566406 C 177.976562 187.855469 178.40625 187.144531 178.878906 186.480469 C 179.445312 185.628906 180.015625 184.777344 180.628906 183.972656 C 182.714844 181.128906 184.988281 178.523438 187.453125 176.0625 C 189.914062 178.523438 192.1875 181.128906 194.273438 183.972656 C 194.886719 184.777344 195.457031 185.628906 196.023438 186.480469 C 196.5 187.191406 196.925781 187.855469 197.351562 188.566406 C 198.347656 190.222656 199.246094 191.929688 200.050781 193.683594 L 200.335938 194.34375 C 200.429688 194.582031 200.523438 194.769531 200.621094 195.007812 C 200.808594 195.433594 200.949219 195.859375 201.09375 196.335938 C 201.378906 197.234375 201.660156 198.132812 201.804688 199.035156 C 202.183594 200.882812 202.324219 202.777344 202.039062 204.527344 C 201.945312 204.953125 201.851562 205.382812 201.757812 205.808594 C 201.613281 206.234375 201.472656 206.613281 201.28125 206.992188 C 201.09375 207.371094 200.855469 207.703125 200.621094 208.035156 C 200.382812 208.367188 200.097656 208.648438 199.765625 208.886719 C 199.671875 208.933594 199.578125 209.027344 199.484375 209.074219 C 198.15625 209.882812 196.453125 209.785156 195.21875 208.792969 C 193.988281 207.796875 192.945312 206.519531 192.332031 205.003906 C 191.667969 203.488281 191.574219 201.828125 191.621094 200.171875 C 191.667969 198.277344 191.761719 196.335938 191.808594 194.441406 C 191.714844 194.25 191.714844 194.15625 191.714844 194.109375 Z M 190.058594 182.171875 C 190.058594 181.792969 190.339844 181.507812 190.71875 181.507812 C 191.097656 181.507812 191.382812 181.792969 191.382812 182.171875 C 191.382812 182.550781 191.097656 182.835938 190.71875 182.835938 C 190.625 182.644531 190.386719 182.503906 190.105469 182.503906 C 190.105469 182.410156 190.058594 182.3125 190.058594 182.171875 Z M 186.742188 180.371094 C 186.742188 179.992188 187.023438 179.707031 187.402344 179.707031 C 187.78125 179.707031 188.066406 179.992188 188.066406 180.371094 C 188.066406 180.515625 188.019531 180.609375 187.972656 180.703125 C 187.6875 180.324219 187.074219 180.371094 186.882812 180.796875 C 186.789062 180.65625 186.742188 180.515625 186.742188 180.371094 Z M 184.65625 182.503906 C 184.421875 182.503906 184.183594 182.644531 184.042969 182.835938 C 183.664062 182.835938 183.378906 182.550781 183.378906 182.171875 C 183.378906 181.792969 183.664062 181.507812 184.042969 181.507812 C 184.421875 181.507812 184.703125 181.792969 184.703125 182.171875 C 184.75 182.3125 184.75 182.410156 184.65625 182.503906 Z M 204.742188 165.878906 C 207.34375 168.484375 209.855469 171.136719 212.128906 174.023438 L 212.082031 174.070312 C 207.441406 177.578125 202.75 181.082031 198.109375 184.632812 C 197.539062 183.6875 196.925781 182.738281 196.261719 181.839844 C 194.226562 178.949219 191.953125 176.25 189.535156 173.742188 C 193.46875 169.949219 197.730469 166.539062 201.992188 163.175781 C 202.941406 164.078125 203.839844 164.976562 204.742188 165.878906 Z M 187.402344 149.628906 C 191.523438 153.421875 195.644531 157.113281 199.671875 160.953125 C 195.503906 164.265625 191.335938 167.726562 187.402344 171.5625 C 183.472656 167.726562 179.304688 164.265625 175.136719 160.953125 C 179.164062 157.113281 183.285156 153.421875 187.402344 149.628906 Z M 170.066406 165.878906 C 170.96875 164.976562 171.867188 164.078125 172.769531 163.175781 C 177.078125 166.539062 181.292969 169.949219 185.226562 173.742188 C 182.855469 176.25 180.582031 178.949219 178.5 181.839844 C 177.882812 182.738281 177.269531 183.6875 176.652344 184.632812 C 172.011719 181.082031 167.320312 177.625 162.679688 174.070312 L 162.632812 174.023438 C 164.953125 171.183594 167.460938 168.484375 170.066406 165.878906 Z M 155.054688 189.609375 C 155.527344 187.238281 156.238281 184.964844 157.230469 182.789062 C 158.226562 180.609375 159.410156 178.570312 160.785156 176.628906 C 160.785156 176.582031 160.832031 176.582031 160.832031 176.535156 L 161.210938 176.820312 C 165.945312 180.183594 170.636719 183.59375 175.421875 186.910156 C 174.425781 188.660156 173.574219 190.460938 172.769531 192.308594 L 172.484375 193.019531 C 172.390625 193.253906 172.292969 193.492188 172.199219 193.730469 C 172.011719 194.203125 171.867188 194.722656 171.679688 195.199219 C 171.394531 196.191406 171.109375 197.234375 170.96875 198.277344 C 170.589844 200.359375 170.496094 202.585938 170.921875 204.765625 C 171.015625 205.285156 171.15625 205.855469 171.347656 206.375 C 171.488281 206.800781 171.679688 207.230469 171.914062 207.609375 C 170.683594 207.039062 169.453125 206.472656 168.269531 205.855469 C 166.183594 204.859375 164.148438 203.867188 162.0625 202.871094 C 160.027344 201.828125 157.988281 200.785156 155.953125 199.699219 C 155.527344 199.460938 155.054688 199.175781 154.625 198.9375 C 154.296875 195.859375 154.4375 192.640625 155.054688 189.609375 Z M 200.667969 222.339844 C 200.523438 222.386719 200.382812 222.386719 200.289062 222.433594 L 199.910156 222.480469 C 199.625 222.527344 199.386719 222.574219 199.105469 222.574219 L 198.296875 222.621094 C 198.15625 222.621094 198.015625 222.671875 197.871094 222.671875 L 196.640625 222.671875 C 196.355469 222.671875 196.121094 222.621094 195.835938 222.621094 C 195.316406 222.621094 194.746094 222.527344 194.226562 222.433594 C 193.941406 222.386719 193.703125 222.339844 193.417969 222.292969 C 193.136719 222.242188 192.898438 222.195312 192.613281 222.101562 L 191.808594 221.863281 L 191.429688 221.769531 L 191.050781 221.628906 L 190.292969 221.34375 C 190.058594 221.25 189.773438 221.105469 189.535156 221.011719 C 189.300781 220.917969 189.109375 220.824219 188.871094 220.726562 C 188.589844 220.585938 188.304688 220.445312 188.019531 220.300781 L 187.832031 220.207031 L 187.640625 220.113281 L 187.355469 219.921875 L 187.074219 220.113281 L 186.882812 220.207031 L 186.695312 220.300781 C 186.410156 220.445312 186.125 220.585938 185.839844 220.726562 C 185.652344 220.824219 185.414062 220.964844 185.179688 221.011719 C 184.941406 221.105469 184.65625 221.25 184.421875 221.34375 L 183.664062 221.628906 L 183.285156 221.769531 L 182.90625 221.863281 L 182.195312 222.148438 C 181.910156 222.195312 181.671875 222.242188 181.390625 222.339844 C 181.105469 222.386719 180.867188 222.480469 180.582031 222.480469 C 180.0625 222.527344 179.492188 222.621094 178.972656 222.671875 C 178.6875 222.671875 178.453125 222.71875 178.167969 222.71875 L 176.9375 222.71875 C 176.792969 222.71875 176.652344 222.71875 176.511719 222.671875 L 175.703125 222.621094 C 175.421875 222.621094 175.183594 222.527344 174.898438 222.527344 L 174.519531 222.480469 C 174.378906 222.480469 174.238281 222.433594 174.140625 222.386719 C 173.621094 222.242188 173.097656 222.195312 172.578125 222.007812 L 171.820312 221.769531 L 171.0625 221.484375 L 170.304688 221.203125 L 169.546875 220.871094 L 168.789062 220.492188 L 168.410156 220.300781 L 168.03125 220.113281 L 167.320312 219.6875 L 166.609375 219.257812 C 166.515625 219.164062 166.375 219.117188 166.277344 219.023438 L 165.945312 218.785156 L 165.285156 218.3125 L 164.621094 217.792969 C 164.527344 217.695312 164.382812 217.601562 164.289062 217.507812 L 163.957031 217.222656 C 163.769531 217.035156 163.53125 216.84375 163.34375 216.65625 L 162.726562 216.039062 C 162.632812 215.945312 162.535156 215.847656 162.441406 215.753906 L 162.15625 215.421875 C 161.96875 215.234375 161.777344 214.996094 161.589844 214.808594 C 161.210938 214.382812 160.832031 213.953125 160.5 213.480469 C 159.789062 212.582031 159.125 211.585938 158.558594 210.589844 C 157.375 208.554688 156.425781 206.375 155.8125 204.054688 C 155.621094 203.488281 155.480469 202.871094 155.335938 202.253906 C 157.375 203.25 159.457031 204.148438 161.496094 205.003906 C 163.625 205.855469 165.757812 206.707031 167.890625 207.511719 C 169.640625 208.128906 171.441406 208.746094 173.195312 209.3125 C 173.527344 209.691406 173.90625 210.023438 174.332031 210.355469 C 174.519531 210.496094 174.898438 210.6875 175.375 210.875 C 176.746094 211.492188 178.355469 211.398438 179.683594 210.589844 C 181.53125 209.453125 183.046875 207.75 183.945312 205.761719 C 184.703125 204.101562 184.941406 202.398438 184.941406 200.597656 C 184.941406 198.703125 184.847656 196.808594 184.75 194.914062 C 184.75 194.867188 184.800781 194.769531 184.800781 194.675781 C 184.800781 193.824219 184.515625 192.972656 184.230469 192.164062 C 183.945312 191.40625 183.566406 190.648438 183.566406 189.84375 C 183.519531 188.945312 183.898438 188.046875 184.609375 187.476562 C 184.894531 187.238281 185.179688 187.003906 185.507812 186.910156 C 186.976562 186.433594 188.96875 186.339844 190.292969 187.289062 C 191.144531 187.902344 191.667969 188.851562 191.621094 189.890625 C 191.574219 190.699219 191.242188 191.457031 190.957031 192.214844 C 190.625 193.019531 190.386719 193.824219 190.386719 194.722656 C 190.386719 194.820312 190.386719 194.867188 190.4375 194.960938 C 190.386719 196.808594 190.292969 198.703125 190.246094 200.550781 C 190.246094 202.398438 190.484375 204.148438 191.195312 205.808594 C 191.953125 207.511719 193.183594 209.027344 194.746094 210.117188 C 194.984375 210.308594 195.21875 210.449219 195.457031 210.589844 C 196.78125 211.398438 198.394531 211.492188 199.8125 210.875 C 200.242188 210.6875 200.621094 210.496094 200.855469 210.355469 C 201.234375 210.070312 201.613281 209.691406 201.992188 209.3125 C 203.746094 208.695312 205.546875 208.128906 207.296875 207.511719 C 209.429688 206.707031 211.5625 205.902344 213.691406 205.003906 C 215.777344 204.148438 217.8125 203.25 219.851562 202.253906 C 219.707031 202.871094 219.566406 203.4375 219.375 204.054688 C 218.714844 206.375 217.765625 208.554688 216.628906 210.589844 C 216.015625 211.585938 215.398438 212.582031 214.6875 213.480469 C 214.355469 213.953125 213.976562 214.382812 213.597656 214.808594 C 213.410156 215.042969 213.21875 215.234375 213.03125 215.421875 L 212.746094 215.753906 C 212.652344 215.847656 212.554688 215.945312 212.460938 216.039062 L 211.84375 216.65625 C 211.65625 216.84375 211.417969 217.035156 211.230469 217.222656 L 210.898438 217.507812 C 210.804688 217.601562 210.660156 217.695312 210.566406 217.792969 L 209.902344 218.3125 L 209.242188 218.785156 L 208.910156 219.023438 C 208.8125 219.117188 208.671875 219.164062 208.578125 219.257812 L 207.867188 219.6875 L 207.15625 220.113281 L 206.777344 220.300781 L 206.398438 220.492188 L 205.640625 220.871094 L 204.882812 221.203125 L 204.125 221.484375 L 203.367188 221.769531 L 202.609375 222.007812 C 201.757812 222.101562 201.234375 222.195312 200.667969 222.339844 Z M 200.667969 222.339844 " fill-opacity="1" fill-rule="nonzero"/></g><g clip-path="url(#ebca7cf3e3)"><path fill="#ccae50" d="M 167.890625 225.558594 L 165.238281 224.753906 L 162.632812 223.855469 C 159.125 222.621094 155.761719 221.058594 152.496094 219.308594 C 149.226562 217.507812 146.054688 215.519531 143.070312 213.246094 C 140.039062 210.96875 137.195312 208.460938 134.542969 205.710938 C 131.84375 202.964844 129.378906 199.980469 127.105469 196.808594 C 124.785156 193.632812 122.75 190.269531 120.855469 186.71875 C 118.960938 183.167969 117.300781 179.519531 115.878906 175.683594 L 114.839844 172.792969 L 113.890625 169.855469 L 113.039062 166.871094 L 112.089844 163.886719 L 112.46875 167.015625 L 112.992188 170.140625 L 113.652344 173.21875 L 114.414062 176.296875 C 115.550781 180.324219 116.96875 184.304688 118.769531 188.046875 C 120.476562 191.835938 122.558594 195.433594 124.878906 198.796875 C 127.199219 202.160156 129.757812 205.332031 132.554688 208.222656 C 135.347656 211.066406 138.378906 213.671875 141.554688 215.945312 C 144.773438 218.171875 148.089844 220.160156 151.59375 221.769531 C 155.054688 223.378906 158.652344 224.613281 162.300781 225.511719 L 165.046875 226.082031 L 167.792969 226.507812 L 170.542969 226.792969 L 173.335938 226.886719 L 170.636719 226.269531 Z M 167.890625 225.558594 " fill-opacity="1" fill-rule="nonzero"/></g><g clip-path="url(#ff159a7408)"><path fill="#ccae50" d="M 261.910156 166.917969 L 261.058594 169.902344 L 260.113281 172.839844 L 259.070312 175.730469 C 257.648438 179.566406 255.945312 183.214844 254.097656 186.765625 C 252.203125 190.269531 250.117188 193.683594 247.84375 196.855469 C 245.570312 200.027344 243.058594 203.011719 240.40625 205.761719 C 237.753906 208.554688 234.914062 211.066406 231.882812 213.292969 C 228.898438 215.613281 225.722656 217.554688 222.457031 219.355469 C 219.1875 221.105469 215.777344 222.671875 212.320312 223.902344 L 209.714844 224.800781 L 207.0625 225.605469 L 204.363281 226.269531 L 201.660156 226.886719 L 204.457031 226.792969 L 207.203125 226.507812 L 209.949219 226.082031 L 212.699219 225.511719 C 216.34375 224.613281 219.945312 223.378906 223.402344 221.769531 C 226.90625 220.207031 230.222656 218.21875 233.445312 215.945312 C 236.617188 213.671875 239.648438 211.066406 242.445312 208.222656 C 245.238281 205.332031 247.796875 202.160156 250.117188 198.796875 C 252.390625 195.386719 254.476562 191.835938 256.226562 188.046875 C 257.980469 184.253906 259.449219 180.324219 260.585938 176.296875 L 261.34375 173.21875 L 262.007812 170.140625 L 262.527344 167.015625 L 262.90625 163.886719 Z M 261.910156 166.917969 " fill-opacity="1" fill-rule="nonzero"/></g><path fill="#ccae50" d="M 190.152344 193.019531 C 190.105469 192.925781 190.058594 192.875 190.007812 192.78125 C 190.058594 192.78125 190.058594 192.734375 190.058594 192.6875 C 189.535156 191.644531 189.015625 190.648438 188.398438 189.703125 C 188.210938 189.417969 188.019531 189.085938 187.734375 188.945312 C 187.734375 188.898438 187.734375 188.898438 187.6875 188.898438 C 187.59375 188.898438 187.5 188.851562 187.453125 188.898438 C 187.355469 188.898438 187.308594 188.898438 187.214844 188.898438 C 187.167969 188.898438 187.167969 188.945312 187.167969 188.945312 C 186.882812 189.085938 186.695312 189.417969 186.503906 189.703125 C 185.886719 190.648438 185.320312 191.644531 184.847656 192.6875 C 184.847656 192.734375 184.847656 192.78125 184.894531 192.78125 C 184.847656 192.875 184.800781 192.925781 184.75 193.019531 C 184.703125 193.113281 184.847656 193.160156 184.894531 193.113281 C 185.128906 192.640625 185.460938 192.070312 186.078125 192.164062 C 186.550781 192.214844 186.835938 192.59375 187.023438 192.972656 C 187.074219 193.113281 187.121094 193.304688 187.214844 193.398438 C 187.261719 193.445312 187.308594 193.445312 187.355469 193.445312 C 187.402344 193.445312 187.5 193.445312 187.546875 193.398438 C 187.59375 193.351562 187.640625 193.304688 187.640625 193.253906 C 187.640625 193.253906 187.6875 193.253906 187.6875 193.207031 C 187.925781 192.734375 188.210938 192.214844 188.777344 192.117188 C 189.394531 192.023438 189.726562 192.59375 189.960938 193.066406 C 190.058594 193.160156 190.199219 193.066406 190.152344 193.019531 Z M 190.152344 193.019531 " fill-opacity="1" fill-rule="nonzero"/><g fill="#000000" fill-opacity="1"><g transform="translate(16.168982, 259.263089)"><g><path d="M 22.421875 -18.734375 C 24.609375 -16.828125 25.703125 -14.179688 25.703125 -10.796875 C 25.703125 -7.410156 24.609375 -4.765625 22.421875 -2.859375 C 20.242188 -0.953125 17.222656 0 13.359375 0 L 1.1875 0 L 1.1875 -0.359375 L 1.65625 -0.359375 C 2.207031 -0.359375 2.675781 -0.550781 3.0625 -0.9375 C 3.445312 -1.320312 3.648438 -1.773438 3.671875 -2.296875 L 3.671875 -19.375 C 3.617188 -19.894531 3.398438 -20.332031 3.015625 -20.6875 C 2.640625 -21.050781 2.175781 -21.234375 1.625 -21.234375 L 1.1875 -21.234375 L 1.1875 -21.59375 L 13.359375 -21.59375 C 17.222656 -21.59375 20.242188 -20.640625 22.421875 -18.734375 Z M 12.921875 -1.4375 C 15.179688 -1.4375 16.960938 -2.265625 18.265625 -3.921875 C 19.578125 -5.578125 20.234375 -7.867188 20.234375 -10.796875 C 20.234375 -13.722656 19.578125 -16.019531 18.265625 -17.6875 C 16.960938 -19.363281 15.179688 -20.203125 12.921875 -20.203125 L 8.859375 -20.203125 L 8.859375 -1.4375 Z M 12.921875 -1.4375 "/></g></g></g><g fill="#000000" fill-opacity="1"><g transform="translate(47.84905, 259.263089)"><g><path d="M 23.96875 -0.359375 L 24.265625 -0.359375 L 24.265625 0 L 13.671875 0 L 13.671875 -0.359375 L 13.96875 -0.359375 C 14.445312 -0.359375 14.789062 -0.5 15 -0.78125 C 15.21875 -1.070312 15.328125 -1.335938 15.328125 -1.578125 C 15.328125 -1.816406 15.28125 -2.070312 15.1875 -2.34375 L 13.78125 -5.65625 L 6.15625 -5.65625 L 4.71875 -2.296875 C 4.613281 -2.054688 4.5625 -1.8125 4.5625 -1.5625 C 4.5625 -1.3125 4.675781 -1.046875 4.90625 -0.765625 C 5.132812 -0.492188 5.488281 -0.359375 5.96875 -0.359375 L 6.265625 -0.359375 L 6.265625 0 L -0.9375 0 L -0.9375 -0.359375 L -0.65625 -0.359375 C -0.144531 -0.359375 0.359375 -0.515625 0.859375 -0.828125 C 1.359375 -1.140625 1.765625 -1.609375 2.078125 -2.234375 L 9.53125 -18.21875 C 10.59375 -20.59375 11.144531 -22.054688 11.1875 -22.609375 L 11.515625 -22.609375 L 21.15625 -2.375 C 21.46875 -1.675781 21.878906 -1.164062 22.390625 -0.84375 C 22.910156 -0.519531 23.4375 -0.359375 23.96875 -0.359375 Z M 6.765625 -7.0625 L 13.171875 -7.0625 L 10 -14.578125 Z M 6.765625 -7.0625 "/></g></g></g><g fill="#000000" fill-opacity="1"><g transform="translate(75.785115, 259.263089)"><g><path d="M 23.96875 -0.359375 L 24.265625 -0.359375 L 24.265625 0 L 13.671875 0 L 13.671875 -0.359375 L 13.96875 -0.359375 C 14.445312 -0.359375 14.789062 -0.5 15 -0.78125 C 15.21875 -1.070312 15.328125 -1.335938 15.328125 -1.578125 C 15.328125 -1.816406 15.28125 -2.070312 15.1875 -2.34375 L 13.78125 -5.65625 L 6.15625 -5.65625 L 4.71875 -2.296875 C 4.613281 -2.054688 4.5625 -1.8125 4.5625 -1.5625 C 4.5625 -1.3125 4.675781 -1.046875 4.90625 -0.765625 C 5.132812 -0.492188 5.488281 -0.359375 5.96875 -0.359375 L 6.265625 -0.359375 L 6.265625 0 L -0.9375 0 L -0.9375 -0.359375 L -0.65625 -0.359375 C -0.144531 -0.359375 0.359375 -0.515625 0.859375 -0.828125 C 1.359375 -1.140625 1.765625 -1.609375 2.078125 -2.234375 L 9.53125 -18.21875 C 10.59375 -20.59375 11.144531 -22.054688 11.1875 -22.609375 L 11.515625 -22.609375 L 21.15625 -2.375 C 21.46875 -1.675781 21.878906 -1.164062 22.390625 -0.84375 C 22.910156 -0.519531 23.4375 -0.359375 23.96875 -0.359375 Z M 6.765625 -7.0625 L 13.171875 -7.0625 L 10 -14.578125 Z M 6.765625 -7.0625 "/></g></g></g><g fill="#000000" fill-opacity="1"><g transform="translate(103.721176, 259.263089)"><g><path d="M 32.109375 -21.234375 L 31.859375 -21.234375 C 31.304688 -21.234375 30.773438 -21.085938 30.265625 -20.796875 C 29.765625 -20.515625 29.394531 -20.097656 29.15625 -19.546875 L 23.828125 -3.234375 C 23.441406 -2.085938 23.25 -1 23.25 0.03125 C 23.25 0.15625 23.25 0.273438 23.25 0.390625 L 22.921875 0.390625 L 15.90625 -13.78125 L 11.046875 -3.234375 C 10.492188 -1.960938 10.21875 -0.753906 10.21875 0.390625 L 9.890625 0.390625 L 2.234375 -19.40625 C 1.960938 -20 1.582031 -20.453125 1.09375 -20.765625 C 0.601562 -21.078125 0.0664062 -21.234375 -0.515625 -21.234375 L -0.796875 -21.234375 L -0.796875 -21.59375 L 9.3125 -21.59375 L 9.3125 -21.234375 L 9.03125 -21.234375 C 8.570312 -21.234375 8.234375 -21.09375 8.015625 -20.8125 C 7.804688 -20.539062 7.703125 -20.285156 7.703125 -20.046875 C 7.703125 -19.804688 7.75 -19.546875 7.84375 -19.265625 L 11.59375 -9.46875 L 17.28125 -22.109375 L 17.5625 -22.109375 L 23.859375 -9.390625 L 26.78125 -19.265625 C 27.019531 -20.222656 26.828125 -20.84375 26.203125 -21.125 C 26.035156 -21.195312 25.84375 -21.234375 25.625 -21.234375 L 25.34375 -21.234375 L 25.34375 -21.59375 L 32.109375 -21.59375 Z M 32.109375 -21.234375 "/></g></g></g><g fill="#000000" fill-opacity="1"><g transform="translate(139.757257, 259.263089)"><g><path d="M 23.96875 -0.359375 L 24.265625 -0.359375 L 24.265625 0 L 13.671875 0 L 13.671875 -0.359375 L 13.96875 -0.359375 C 14.445312 -0.359375 14.789062 -0.5 15 -0.78125 C 15.21875 -1.070312 15.328125 -1.335938 15.328125 -1.578125 C 15.328125 -1.816406 15.28125 -2.070312 15.1875 -2.34375 L 13.78125 -5.65625 L 6.15625 -5.65625 L 4.71875 -2.296875 C 4.613281 -2.054688 4.5625 -1.8125 4.5625 -1.5625 C 4.5625 -1.3125 4.675781 -1.046875 4.90625 -0.765625 C 5.132812 -0.492188 5.488281 -0.359375 5.96875 -0.359375 L 6.265625 -0.359375 L 6.265625 0 L -0.9375 0 L -0.9375 -0.359375 L -0.65625 -0.359375 C -0.144531 -0.359375 0.359375 -0.515625 0.859375 -0.828125 C 1.359375 -1.140625 1.765625 -1.609375 2.078125 -2.234375 L 9.53125 -18.21875 C 10.59375 -20.59375 11.144531 -22.054688 11.1875 -22.609375 L 11.515625 -22.609375 L 21.15625 -2.375 C 21.46875 -1.675781 21.878906 -1.164062 22.390625 -0.84375 C 22.910156 -0.519531 23.4375 -0.359375 23.96875 -0.359375 Z M 6.765625 -7.0625 L 13.171875 -7.0625 L 10 -14.578125 Z M 6.765625 -7.0625 "/></g></g></g><g fill="#000000" fill-opacity="1"><g transform="translate(167.693325, 259.263089)"><g><path d="M 20.84375 -16.484375 L 20.84375 -16.8125 C 20.84375 -17.84375 20.550781 -18.65625 19.96875 -19.25 C 19.394531 -19.851562 18.59375 -20.171875 17.5625 -20.203125 L 13.390625 -20.203125 L 13.390625 -2.234375 C 13.410156 -1.703125 13.613281 -1.253906 14 -0.890625 C 14.382812 -0.535156 14.84375 -0.359375 15.375 -0.359375 L 15.765625 -0.359375 L 15.765625 0 L 5.828125 0 L 5.828125 -0.359375 L 6.1875 -0.359375 C 6.738281 -0.359375 7.207031 -0.535156 7.59375 -0.890625 C 7.976562 -1.253906 8.171875 -1.710938 8.171875 -2.265625 L 8.171875 -20.203125 L 4.03125 -20.203125 C 2.976562 -20.171875 2.160156 -19.851562 1.578125 -19.25 C 1.003906 -18.65625 0.71875 -17.84375 0.71875 -16.8125 L 0.71875 -16.484375 L 0.359375 -16.484375 L 0.359375 -22.171875 C 0.691406 -22.054688 1.25 -21.9375 2.03125 -21.8125 C 2.8125 -21.695312 3.515625 -21.640625 4.140625 -21.640625 L 17.421875 -21.640625 C 18.484375 -21.640625 19.351562 -21.71875 20.03125 -21.875 C 20.71875 -22.03125 21.109375 -22.128906 21.203125 -22.171875 L 21.203125 -16.484375 Z M 20.84375 -16.484375 "/></g></g></g><g fill="#000000" fill-opacity="1"><g transform="translate(194.00939, 259.263089)"><g><path d="M 1.15625 -10.515625 L 1.4375 -11.703125 L 12.234375 -11.703125 L 12.53125 -10.515625 L 12.234375 -9.28125 L 1.4375 -9.28125 Z M 1.15625 -10.515625 "/></g></g></g><g fill="#000000" fill-opacity="1"><g transform="translate(212.441438, 259.263089)"><g><path d="M 23.96875 -0.359375 L 24.265625 -0.359375 L 24.265625 0 L 13.671875 0 L 13.671875 -0.359375 L 13.96875 -0.359375 C 14.445312 -0.359375 14.789062 -0.5 15 -0.78125 C 15.21875 -1.070312 15.328125 -1.335938 15.328125 -1.578125 C 15.328125 -1.816406 15.28125 -2.070312 15.1875 -2.34375 L 13.78125 -5.65625 L 6.15625 -5.65625 L 4.71875 -2.296875 C 4.613281 -2.054688 4.5625 -1.8125 4.5625 -1.5625 C 4.5625 -1.3125 4.675781 -1.046875 4.90625 -0.765625 C 5.132812 -0.492188 5.488281 -0.359375 5.96875 -0.359375 L 6.265625 -0.359375 L 6.265625 0 L -0.9375 0 L -0.9375 -0.359375 L -0.65625 -0.359375 C -0.144531 -0.359375 0.359375 -0.515625 0.859375 -0.828125 C 1.359375 -1.140625 1.765625 -1.609375 2.078125 -2.234375 L 9.53125 -18.21875 C 10.59375 -20.59375 11.144531 -22.054688 11.1875 -22.609375 L 11.515625 -22.609375 L 21.15625 -2.375 C 21.46875 -1.675781 21.878906 -1.164062 22.390625 -0.84375 C 22.910156 -0.519531 23.4375 -0.359375 23.96875 -0.359375 Z M 6.765625 -7.0625 L 13.171875 -7.0625 L 10 -14.578125 Z M 6.765625 -7.0625 "/></g></g></g><g fill="#000000" fill-opacity="1"><g transform="translate(240.377494, 259.263089)"><g><path d="M 1.15625 -10.515625 L 1.4375 -11.703125 L 12.234375 -11.703125 L 12.53125 -10.515625 L 12.234375 -9.28125 L 1.4375 -9.28125 Z M 1.15625 -10.515625 "/></g></g></g><g fill="#000000" fill-opacity="1"><g transform="translate(258.80953, 259.263089)"><g><path d="M 1.21875 -0.359375 L 1.65625 -0.359375 C 2.226562 -0.359375 2.71875 -0.539062 3.125 -0.90625 C 3.539062 -1.28125 3.75 -1.734375 3.75 -2.265625 L 3.75 -19.328125 C 3.75 -19.859375 3.539062 -20.304688 3.125 -20.671875 C 2.71875 -21.046875 2.226562 -21.234375 1.65625 -21.234375 L 1.21875 -21.234375 L 1.21875 -21.59375 L 11.453125 -21.59375 L 11.453125 -21.234375 L 11.015625 -21.234375 C 10.460938 -21.234375 9.984375 -21.050781 9.578125 -20.6875 C 9.171875 -20.332031 8.953125 -19.894531 8.921875 -19.375 L 8.921875 -2.265625 C 8.953125 -1.710938 9.171875 -1.253906 9.578125 -0.890625 C 9.984375 -0.535156 10.460938 -0.359375 11.015625 -0.359375 L 11.453125 -0.359375 L 11.453125 0 L 1.21875 0 Z M 1.21875 -0.359375 "/></g></g></g><g fill="#000000" fill-opacity="1"><g transform="translate(276.233571, 259.263089)"><g><path d="M 1.65625 -2.953125 C 1.65625 -4.515625 2.003906 -5.847656 2.703125 -6.953125 L 2.984375 -6.953125 C 2.960938 -6.785156 2.953125 -6.628906 2.953125 -6.484375 C 2.953125 -5.015625 3.472656 -3.726562 4.515625 -2.625 C 5.554688 -1.519531 7.015625 -0.96875 8.890625 -0.96875 C 10.234375 -0.96875 11.269531 -1.28125 12 -1.90625 C 12.738281 -2.53125 13.109375 -3.222656 13.109375 -3.984375 C 13.109375 -4.753906 12.894531 -5.375 12.46875 -5.84375 C 12.050781 -6.3125 11.363281 -6.859375 10.40625 -7.484375 L 5.296875 -10.734375 C 3.128906 -12.078125 2.046875 -13.800781 2.046875 -15.90625 C 2.046875 -16.125 2.0625 -16.351562 2.09375 -16.59375 C 2.226562 -18.300781 2.882812 -19.640625 4.0625 -20.609375 C 5.238281 -21.578125 6.625 -22.0625 8.21875 -22.0625 C 9.820312 -22.0625 11.507812 -21.957031 13.28125 -21.75 L 15.234375 -21.75 L 14.71875 -16.984375 L 14.40625 -16.984375 C 14.40625 -18.117188 14.015625 -19.007812 13.234375 -19.65625 C 12.453125 -20.300781 11.414062 -20.625 10.125 -20.625 C 8.84375 -20.625 7.828125 -20.351562 7.078125 -19.8125 C 6.335938 -19.28125 5.96875 -18.566406 5.96875 -17.671875 C 5.96875 -16.953125 6.332031 -16.328125 7.0625 -15.796875 C 7.34375 -15.585938 7.757812 -15.3125 8.3125 -14.96875 L 14.046875 -11.453125 C 16.003906 -10.242188 16.984375 -8.585938 16.984375 -6.484375 C 16.984375 -4.242188 16.195312 -2.523438 14.625 -1.328125 C 13.0625 -0.128906 11.03125 0.46875 8.53125 0.46875 C 7 0.46875 5.644531 0.289062 4.46875 -0.0625 C 3.289062 -0.425781 2.425781 -0.882812 1.875 -1.4375 C 1.726562 -1.875 1.65625 -2.378906 1.65625 -2.953125 Z M 1.65625 -2.953125 "/></g></g></g><g fill="#000000" fill-opacity="1"><g transform="translate(299.489612, 259.263089)"><g><path d="M 25.421875 -0.359375 L 25.8125 -0.359375 L 25.8125 0 L 15.90625 0 L 15.90625 -0.359375 L 16.265625 -0.359375 C 16.816406 -0.359375 17.285156 -0.535156 17.671875 -0.890625 C 18.054688 -1.253906 18.25 -1.710938 18.25 -2.265625 L 18.25 -10.046875 L 8.78125 -10.046875 L 8.78125 -2.265625 C 8.800781 -1.710938 9.003906 -1.253906 9.390625 -0.890625 C 9.773438 -0.535156 10.234375 -0.359375 10.765625 -0.359375 L 11.15625 -0.359375 L 11.15625 0 L 1.21875 0 L 1.21875 -0.359375 L 1.625 -0.359375 C 2.175781 -0.359375 2.640625 -0.539062 3.015625 -0.90625 C 3.398438 -1.28125 3.59375 -1.734375 3.59375 -2.265625 L 3.59375 -19.328125 C 3.59375 -19.859375 3.398438 -20.304688 3.015625 -20.671875 C 2.640625 -21.046875 2.175781 -21.234375 1.625 -21.234375 L 1.21875 -21.234375 L 1.21875 -21.59375 L 11.15625 -21.59375 L 11.15625 -21.234375 L 10.765625 -21.234375 C 10.234375 -21.234375 9.773438 -21.050781 9.390625 -20.6875 C 9.003906 -20.332031 8.800781 -19.894531 8.78125 -19.375 L 8.78125 -11.484375 L 18.25 -11.484375 L 18.25 -19.328125 C 18.25 -20.078125 17.925781 -20.628906 17.28125 -20.984375 C 16.96875 -21.148438 16.628906 -21.234375 16.265625 -21.234375 L 15.90625 -21.234375 L 15.90625 -21.59375 L 25.8125 -21.59375 L 25.8125 -21.234375 L 25.421875 -21.234375 C 24.890625 -21.234375 24.429688 -21.050781 24.046875 -20.6875 C 23.660156 -20.332031 23.457031 -19.878906 23.4375 -19.328125 L 23.4375 -2.234375 C 23.457031 -1.484375 23.78125 -0.941406 24.40625 -0.609375 C 24.71875 -0.441406 25.054688 -0.359375 25.421875 -0.359375 Z M 25.421875 -0.359375 "/></g></g></g><g fill="#000000" fill-opacity="1"><g transform="translate(331.241677, 259.263089)"><g><path d="M 27.640625 2.84375 C 30.210938 3.820312 32.753906 4.3125 35.265625 4.3125 C 37.773438 4.3125 39.925781 3.59375 41.71875 2.15625 L 41.90625 2.265625 C 41.832031 4.085938 41.0625 5.625 39.59375 6.875 C 37.988281 8.21875 35.957031 8.890625 33.5 8.890625 C 31.039062 8.890625 28.347656 8.171875 25.421875 6.734375 C 24.335938 6.160156 23.003906 5.328125 21.421875 4.234375 C 19.835938 3.140625 18.453125 2.257812 17.265625 1.59375 C 16.078125 0.9375 14.914062 0.5625 13.78125 0.46875 L 13.6875 0.46875 C 9.914062 0.46875 6.898438 -0.539062 4.640625 -2.5625 C 2.390625 -4.59375 1.265625 -7.335938 1.265625 -10.796875 C 1.265625 -14.253906 2.390625 -16.992188 4.640625 -19.015625 C 6.898438 -21.046875 9.90625 -22.0625 13.65625 -22.0625 C 17.414062 -22.0625 20.425781 -21.046875 22.6875 -19.015625 C 24.957031 -16.992188 26.09375 -14.253906 26.09375 -10.796875 C 26.09375 -7.203125 24.882812 -4.382812 22.46875 -2.34375 C 21.289062 -1.382812 19.894531 -0.664062 18.28125 -0.1875 C 19.96875 0.15625 21.5 0.578125 22.875 1.078125 C 24.257812 1.585938 25.847656 2.175781 27.640625 2.84375 Z M 6.796875 -10.796875 C 6.796875 -7.773438 7.414062 -5.378906 8.65625 -3.609375 C 9.894531 -1.847656 11.566406 -0.96875 13.671875 -0.96875 C 15.785156 -0.96875 17.460938 -1.84375 18.703125 -3.59375 C 19.941406 -5.351562 20.5625 -7.75 20.5625 -10.78125 C 20.5625 -13.820312 19.941406 -16.222656 18.703125 -17.984375 C 17.460938 -19.742188 15.789062 -20.625 13.6875 -20.625 C 12.289062 -20.625 11.066406 -20.234375 10.015625 -19.453125 C 8.972656 -18.671875 8.175781 -17.53125 7.625 -16.03125 C 7.070312 -14.53125 6.796875 -12.785156 6.796875 -10.796875 Z M 6.796875 -10.796875 "/></g></g></g><g fill="#ccae50" fill-opacity="1"><g transform="translate(75.900813, 280.503058)"><g><path d="M 3.234375 -7.890625 L 3.234375 -4.390625 L 4.8125 -4.390625 C 5.101562 -4.398438 5.34375 -4.5 5.53125 -4.6875 C 5.726562 -4.882812 5.828125 -5.128906 5.828125 -5.421875 L 5.828125 -5.53125 L 5.953125 -5.53125 L 5.953125 -2.765625 L 5.828125 -2.765625 L 5.828125 -2.859375 C 5.828125 -3.148438 5.734375 -3.390625 5.546875 -3.578125 C 5.359375 -3.773438 5.125 -3.878906 4.84375 -3.890625 L 3.234375 -3.890625 L 3.234375 -0.875 C 3.234375 -0.664062 3.304688 -0.488281 3.453125 -0.34375 C 3.609375 -0.195312 3.789062 -0.125 4 -0.125 L 4.140625 -0.125 L 4.15625 0 L 0.5 0 L 0.5 -0.125 L 0.65625 -0.125 C 0.863281 -0.125 1.039062 -0.195312 1.1875 -0.34375 C 1.34375 -0.488281 1.421875 -0.664062 1.421875 -0.875 L 1.421875 -7.5625 C 1.421875 -7.84375 1.289062 -8.050781 1.03125 -8.1875 C 0.914062 -8.25 0.789062 -8.28125 0.65625 -8.28125 L 0.5 -8.28125 L 0.5 -8.40625 L 5.09375 -8.40625 C 5.34375 -8.40625 5.613281 -8.425781 5.90625 -8.46875 C 6.207031 -8.519531 6.421875 -8.566406 6.546875 -8.609375 L 6.546875 -6.59375 L 6.421875 -6.59375 L 6.421875 -6.703125 C 6.421875 -7.054688 6.316406 -7.335938 6.109375 -7.546875 C 5.910156 -7.765625 5.632812 -7.878906 5.28125 -7.890625 Z M 3.234375 -7.890625 "/></g></g></g><g fill="#ccae50" fill-opacity="1"><g transform="translate(87.792885, 280.503058)"><g><path d="M 0.65625 -0.125 C 0.863281 -0.125 1.039062 -0.195312 1.1875 -0.34375 C 1.34375 -0.488281 1.421875 -0.664062 1.421875 -0.875 L 1.421875 -7.53125 C 1.421875 -7.738281 1.34375 -7.914062 1.1875 -8.0625 C 1.039062 -8.207031 0.863281 -8.28125 0.65625 -8.28125 L 0.5 -8.28125 L 0.5 -8.40625 L 4.15625 -8.40625 L 4.140625 -8.28125 L 4 -8.28125 C 3.789062 -8.28125 3.609375 -8.207031 3.453125 -8.0625 C 3.304688 -7.914062 3.234375 -7.738281 3.234375 -7.53125 L 3.234375 -0.875 C 3.234375 -0.664062 3.304688 -0.488281 3.453125 -0.34375 C 3.609375 -0.195312 3.789062 -0.125 4 -0.125 L 4.140625 -0.125 L 4.15625 0 L 0.5 0 L 0.5 -0.125 Z M 0.65625 -0.125 "/></g></g></g><g fill="#ccae50" fill-opacity="1"><g transform="translate(97.176951, 280.503058)"><g><path d="M 9.796875 -8.28125 C 9.523438 -8.28125 9.316406 -8.160156 9.171875 -7.921875 C 9.109375 -7.816406 9.070312 -7.695312 9.0625 -7.5625 L 9.0625 -1.375 C 9.0625 -0.832031 9.097656 -0.378906 9.171875 -0.015625 L 9.203125 0.171875 L 9.09375 0.171875 L 3.03125 -5.609375 L 3.03125 -0.84375 C 3.03125 -0.644531 3.101562 -0.472656 3.25 -0.328125 C 3.394531 -0.191406 3.566406 -0.125 3.765625 -0.125 L 4 -0.125 L 4 0 L 0.359375 0 L 0.359375 -0.125 L 0.578125 -0.125 C 0.785156 -0.125 0.957031 -0.191406 1.09375 -0.328125 C 1.238281 -0.472656 1.3125 -0.648438 1.3125 -0.859375 L 1.3125 -7.078125 C 1.3125 -7.609375 1.28125 -8.050781 1.21875 -8.40625 L 1.1875 -8.578125 L 1.296875 -8.578125 L 7.359375 -2.8125 L 7.359375 -7.546875 C 7.347656 -7.753906 7.269531 -7.925781 7.125 -8.0625 C 6.976562 -8.207031 6.804688 -8.28125 6.609375 -8.28125 L 6.390625 -8.28125 L 6.390625 -8.40625 L 10.03125 -8.40625 L 10.03125 -8.28125 Z M 9.796875 -8.28125 "/></g></g></g><g fill="#ccae50" fill-opacity="1"><g transform="translate(112.309029, 280.503058)"><g><path d="M 0.65625 -0.125 C 0.863281 -0.125 1.039062 -0.195312 1.1875 -0.34375 C 1.34375 -0.488281 1.421875 -0.664062 1.421875 -0.875 L 1.421875 -7.5625 C 1.410156 -7.769531 1.351562 -7.921875 1.25 -8.015625 C 1.050781 -8.191406 0.851562 -8.28125 0.65625 -8.28125 L 0.5 -8.28125 L 0.5 -8.40625 L 5.09375 -8.40625 C 5.488281 -8.40625 5.8125 -8.429688 6.0625 -8.484375 C 6.320312 -8.546875 6.484375 -8.585938 6.546875 -8.609375 L 6.546875 -6.515625 L 6.421875 -6.53125 L 6.421875 -6.65625 C 6.421875 -7.15625 6.238281 -7.507812 5.875 -7.71875 C 5.695312 -7.820312 5.488281 -7.878906 5.25 -7.890625 L 3.234375 -7.890625 L 3.234375 -4.390625 L 4.8125 -4.390625 C 5.101562 -4.398438 5.34375 -4.5 5.53125 -4.6875 C 5.726562 -4.882812 5.828125 -5.128906 5.828125 -5.421875 L 5.828125 -5.53125 L 5.953125 -5.53125 L 5.953125 -2.765625 L 5.828125 -2.765625 L 5.828125 -2.859375 C 5.828125 -3.148438 5.734375 -3.390625 5.546875 -3.578125 C 5.359375 -3.773438 5.125 -3.878906 4.84375 -3.890625 L 3.234375 -3.890625 L 3.234375 -0.515625 L 4.796875 -0.515625 C 5.378906 -0.515625 5.867188 -0.679688 6.265625 -1.015625 C 6.660156 -1.359375 6.957031 -1.835938 7.15625 -2.453125 L 7.265625 -2.453125 L 6.71875 0 L 0.5 0 L 0.5 -0.125 Z M 0.65625 -0.125 "/></g></g></g><g fill="#ccae50" fill-opacity="1"><g transform="translate(124.633105, 280.503058)"><g/></g></g><g fill="#ccae50" fill-opacity="1"><g transform="translate(132.385172, 280.503058)"><g><path d="M 0.65625 -0.125 C 0.863281 -0.125 1.039062 -0.195312 1.1875 -0.34375 C 1.34375 -0.488281 1.421875 -0.664062 1.421875 -0.875 L 1.421875 -7.53125 C 1.421875 -7.738281 1.34375 -7.914062 1.1875 -8.0625 C 1.039062 -8.207031 0.863281 -8.28125 0.65625 -8.28125 L 0.5 -8.28125 L 0.5 -8.40625 L 4.15625 -8.40625 L 4.140625 -8.28125 L 4 -8.28125 C 3.789062 -8.28125 3.609375 -8.207031 3.453125 -8.0625 C 3.304688 -7.914062 3.234375 -7.738281 3.234375 -7.53125 L 3.234375 -0.875 C 3.234375 -0.664062 3.304688 -0.488281 3.453125 -0.34375 C 3.609375 -0.195312 3.789062 -0.125 4 -0.125 L 4.140625 -0.125 L 4.15625 0 L 0.5 0 L 0.5 -0.125 Z M 0.65625 -0.125 "/></g></g></g><g fill="#ccae50" fill-opacity="1"><g transform="translate(141.769235, 280.503058)"><g><path d="M 9.796875 -8.28125 C 9.523438 -8.28125 9.316406 -8.160156 9.171875 -7.921875 C 9.109375 -7.816406 9.070312 -7.695312 9.0625 -7.5625 L 9.0625 -1.375 C 9.0625 -0.832031 9.097656 -0.378906 9.171875 -0.015625 L 9.203125 0.171875 L 9.09375 0.171875 L 3.03125 -5.609375 L 3.03125 -0.84375 C 3.03125 -0.644531 3.101562 -0.472656 3.25 -0.328125 C 3.394531 -0.191406 3.566406 -0.125 3.765625 -0.125 L 4 -0.125 L 4 0 L 0.359375 0 L 0.359375 -0.125 L 0.578125 -0.125 C 0.785156 -0.125 0.957031 -0.191406 1.09375 -0.328125 C 1.238281 -0.472656 1.3125 -0.648438 1.3125 -0.859375 L 1.3125 -7.078125 C 1.3125 -7.609375 1.28125 -8.050781 1.21875 -8.40625 L 1.1875 -8.578125 L 1.296875 -8.578125 L 7.359375 -2.8125 L 7.359375 -7.546875 C 7.347656 -7.753906 7.269531 -7.925781 7.125 -8.0625 C 6.976562 -8.207031 6.804688 -8.28125 6.609375 -8.28125 L 6.390625 -8.28125 L 6.390625 -8.40625 L 10.03125 -8.40625 L 10.03125 -8.28125 Z M 9.796875 -8.28125 "/></g></g></g><g fill="#ccae50" fill-opacity="1"><g transform="translate(156.901311, 280.503058)"><g><path d="M 4.859375 -8.40625 C 6.273438 -8.40625 7.394531 -8.023438 8.21875 -7.265625 C 9.039062 -6.515625 9.453125 -5.488281 9.453125 -4.1875 C 9.453125 -2.894531 9.039062 -1.875 8.21875 -1.125 C 7.394531 -0.375 6.273438 0 4.859375 0 L 0.5 0 L 0.5 -0.125 L 0.65625 -0.125 C 0.863281 -0.125 1.039062 -0.195312 1.1875 -0.34375 C 1.34375 -0.488281 1.421875 -0.664062 1.421875 -0.875 L 1.421875 -7.59375 C 1.421875 -7.789062 1.34375 -7.953125 1.1875 -8.078125 C 1.03125 -8.210938 0.851562 -8.28125 0.65625 -8.28125 L 0.5 -8.28125 L 0.5 -8.40625 Z M 4.703125 -0.515625 C 5.273438 -0.515625 5.769531 -0.660156 6.1875 -0.953125 C 6.613281 -1.253906 6.9375 -1.679688 7.15625 -2.234375 C 7.382812 -2.796875 7.5 -3.40625 7.5 -4.0625 C 7.5 -4.71875 7.429688 -5.273438 7.296875 -5.734375 C 7.171875 -6.191406 6.988281 -6.582031 6.75 -6.90625 C 6.25 -7.5625 5.566406 -7.890625 4.703125 -7.890625 L 3.234375 -7.890625 L 3.234375 -0.515625 Z M 4.703125 -0.515625 "/></g></g></g><g fill="#ccae50" fill-opacity="1"><g transform="translate(171.589389, 280.503058)"><g><path d="M 0.65625 -0.125 C 0.863281 -0.125 1.039062 -0.195312 1.1875 -0.34375 C 1.34375 -0.488281 1.421875 -0.664062 1.421875 -0.875 L 1.421875 -7.53125 C 1.421875 -7.738281 1.34375 -7.914062 1.1875 -8.0625 C 1.039062 -8.207031 0.863281 -8.28125 0.65625 -8.28125 L 0.5 -8.28125 L 0.5 -8.40625 L 4.15625 -8.40625 L 4.140625 -8.28125 L 4 -8.28125 C 3.789062 -8.28125 3.609375 -8.207031 3.453125 -8.0625 C 3.304688 -7.914062 3.234375 -7.738281 3.234375 -7.53125 L 3.234375 -0.875 C 3.234375 -0.664062 3.304688 -0.488281 3.453125 -0.34375 C 3.609375 -0.195312 3.789062 -0.125 4 -0.125 L 4.140625 -0.125 L 4.15625 0 L 0.5 0 L 0.5 -0.125 Z M 0.65625 -0.125 "/></g></g></g><g fill="#ccae50" fill-opacity="1"><g transform="translate(180.973452, 280.503058)"><g><path d="M 8.859375 -0.125 L 8.96875 -0.125 L 8.96875 0 L 5.140625 0 L 5.140625 -0.125 L 5.25 -0.125 C 5.425781 -0.125 5.554688 -0.175781 5.640625 -0.28125 C 5.722656 -0.382812 5.765625 -0.484375 5.765625 -0.578125 C 5.765625 -0.679688 5.742188 -0.78125 5.703125 -0.875 L 5.109375 -2.359375 L 2.3125 -2.359375 L 1.6875 -0.875 C 1.644531 -0.769531 1.625 -0.671875 1.625 -0.578125 C 1.625 -0.484375 1.664062 -0.382812 1.75 -0.28125 C 1.84375 -0.175781 1.976562 -0.125 2.15625 -0.125 L 2.25 -0.125 L 2.25 0 L -0.328125 0 L -0.328125 -0.125 L -0.21875 -0.125 C -0.03125 -0.125 0.148438 -0.175781 0.328125 -0.28125 C 0.515625 -0.394531 0.671875 -0.566406 0.796875 -0.796875 L 3.5625 -7.0625 C 3.9375 -7.851562 4.140625 -8.378906 4.171875 -8.640625 L 4.28125 -8.640625 L 7.84375 -0.8125 C 7.957031 -0.582031 8.109375 -0.410156 8.296875 -0.296875 C 8.484375 -0.179688 8.671875 -0.125 8.859375 -0.125 Z M 2.515625 -2.859375 L 4.90625 -2.859375 L 3.75 -5.8125 Z M 2.515625 -2.859375 "/></g></g></g><g fill="#ccae50" fill-opacity="1"><g transform="translate(194.317526, 280.503058)"><g><path d="M 9.796875 -8.28125 C 9.523438 -8.28125 9.316406 -8.160156 9.171875 -7.921875 C 9.109375 -7.816406 9.070312 -7.695312 9.0625 -7.5625 L 9.0625 -1.375 C 9.0625 -0.832031 9.097656 -0.378906 9.171875 -0.015625 L 9.203125 0.171875 L 9.09375 0.171875 L 3.03125 -5.609375 L 3.03125 -0.84375 C 3.03125 -0.644531 3.101562 -0.472656 3.25 -0.328125 C 3.394531 -0.191406 3.566406 -0.125 3.765625 -0.125 L 4 -0.125 L 4 0 L 0.359375 0 L 0.359375 -0.125 L 0.578125 -0.125 C 0.785156 -0.125 0.957031 -0.191406 1.09375 -0.328125 C 1.238281 -0.472656 1.3125 -0.648438 1.3125 -0.859375 L 1.3125 -7.078125 C 1.3125 -7.609375 1.28125 -8.050781 1.21875 -8.40625 L 1.1875 -8.578125 L 1.296875 -8.578125 L 7.359375 -2.8125 L 7.359375 -7.546875 C 7.347656 -7.753906 7.269531 -7.925781 7.125 -8.0625 C 6.976562 -8.207031 6.804688 -8.28125 6.609375 -8.28125 L 6.390625 -8.28125 L 6.390625 -8.40625 L 10.03125 -8.40625 L 10.03125 -8.28125 Z M 9.796875 -8.28125 "/></g></g></g><g fill="#ccae50" fill-opacity="1"><g transform="translate(209.449601, 280.503058)"><g/></g></g><g fill="#ccae50" fill-opacity="1"><g transform="translate(217.201668, 280.503058)"><g><path d="M 5.5 0.15625 C 3.957031 0.15625 2.742188 -0.226562 1.859375 -1 C 0.984375 -1.78125 0.546875 -2.847656 0.546875 -4.203125 C 0.546875 -5.554688 0.976562 -6.617188 1.84375 -7.390625 C 2.71875 -8.171875 3.914062 -8.5625 5.4375 -8.5625 C 6.59375 -8.5625 7.585938 -8.347656 8.421875 -7.921875 L 8.453125 -5.859375 L 8.359375 -5.859375 C 7.941406 -7.328125 7.007812 -8.0625 5.5625 -8.0625 C 4.613281 -8.0625 3.863281 -7.71875 3.3125 -7.03125 C 2.769531 -6.351562 2.5 -5.421875 2.5 -4.234375 C 2.5 -3.046875 2.757812 -2.101562 3.28125 -1.40625 C 3.800781 -0.71875 4.507812 -0.363281 5.40625 -0.34375 C 6.332031 -0.34375 7.039062 -0.570312 7.53125 -1.03125 C 8.03125 -1.507812 8.375 -2.332031 8.5625 -3.5 L 8.65625 -3.5 L 8.78125 -1.4375 C 8.132812 -0.363281 7.039062 0.164062 5.5 0.15625 Z M 5.5 0.15625 "/></g></g></g><g fill="#ccae50" fill-opacity="1"><g transform="translate(231.313743, 280.503058)"><g><path d="M 9.484375 -8.28125 L 9.28125 -8.28125 C 9.113281 -8.28125 8.96875 -8.222656 8.84375 -8.109375 C 8.71875 -8.003906 8.65625 -7.875 8.65625 -7.71875 L 8.65625 -3.03125 C 8.65625 -2.050781 8.34375 -1.269531 7.71875 -0.6875 C 7.101562 -0.113281 6.265625 0.171875 5.203125 0.171875 C 3.929688 0.171875 2.957031 -0.109375 2.28125 -0.671875 C 1.613281 -1.242188 1.28125 -2.03125 1.28125 -3.03125 L 1.28125 -7.6875 C 1.269531 -7.925781 1.160156 -8.097656 0.953125 -8.203125 C 0.859375 -8.253906 0.753906 -8.28125 0.640625 -8.28125 L 0.453125 -8.28125 L 0.453125 -8.40625 L 3.90625 -8.40625 L 3.90625 -8.28125 L 3.71875 -8.28125 C 3.539062 -8.28125 3.390625 -8.222656 3.265625 -8.109375 C 3.148438 -8.003906 3.085938 -7.867188 3.078125 -7.703125 L 3.078125 -3.125 C 3.078125 -2.269531 3.285156 -1.59375 3.703125 -1.09375 C 4.117188 -0.601562 4.691406 -0.359375 5.421875 -0.359375 C 6.148438 -0.359375 6.722656 -0.59375 7.140625 -1.0625 C 7.566406 -1.53125 7.785156 -2.164062 7.796875 -2.96875 L 7.796875 -7.703125 C 7.785156 -7.929688 7.675781 -8.097656 7.46875 -8.203125 C 7.375 -8.253906 7.269531 -8.28125 7.15625 -8.28125 L 6.96875 -8.28125 L 6.96875 -8.40625 L 9.484375 -8.40625 Z M 9.484375 -8.28125 "/></g></g></g><g fill="#ccae50" fill-opacity="1"><g transform="translate(245.917822, 280.503058)"><g><path d="M 0.65625 -0.125 C 0.863281 -0.125 1.039062 -0.195312 1.1875 -0.34375 C 1.34375 -0.488281 1.421875 -0.664062 1.421875 -0.875 L 1.421875 -7.53125 C 1.421875 -7.738281 1.34375 -7.914062 1.1875 -8.0625 C 1.039062 -8.207031 0.863281 -8.28125 0.65625 -8.28125 L 0.5 -8.28125 L 0.5 -8.40625 L 4.15625 -8.40625 L 4.140625 -8.28125 L 4 -8.28125 C 3.789062 -8.28125 3.609375 -8.207031 3.453125 -8.0625 C 3.304688 -7.914062 3.234375 -7.738281 3.234375 -7.53125 L 3.234375 -0.875 C 3.234375 -0.664062 3.304688 -0.488281 3.453125 -0.34375 C 3.609375 -0.195312 3.789062 -0.125 4 -0.125 L 4.140625 -0.125 L 4.15625 0 L 0.5 0 L 0.5 -0.125 Z M 0.65625 -0.125 "/></g></g></g><g fill="#ccae50" fill-opacity="1"><g transform="translate(255.301886, 280.503058)"><g><path d="M 0.59375 -1.109375 C 0.59375 -1.691406 0.71875 -2.1875 0.96875 -2.59375 L 1.078125 -2.59375 C 1.066406 -2.53125 1.0625 -2.46875 1.0625 -2.40625 C 1.0625 -1.851562 1.257812 -1.367188 1.65625 -0.953125 C 2.050781 -0.546875 2.59375 -0.34375 3.28125 -0.34375 C 3.820312 -0.34375 4.238281 -0.46875 4.53125 -0.71875 C 4.832031 -0.976562 4.984375 -1.300781 4.984375 -1.6875 C 4.984375 -1.925781 4.910156 -2.132812 4.765625 -2.3125 C 4.617188 -2.5 4.375 -2.703125 4.03125 -2.921875 L 1.9375 -4.3125 C 1.164062 -4.832031 0.78125 -5.472656 0.78125 -6.234375 C 0.78125 -6.304688 0.785156 -6.382812 0.796875 -6.46875 C 0.847656 -7.101562 1.09375 -7.609375 1.53125 -7.984375 C 1.976562 -8.367188 2.578125 -8.5625 3.328125 -8.5625 C 3.765625 -8.5625 4.304688 -8.523438 4.953125 -8.453125 L 5.71875 -8.453125 L 5.5625 -6.6875 L 5.4375 -6.6875 C 5.4375 -7.101562 5.28125 -7.4375 4.96875 -7.6875 C 4.664062 -7.9375 4.257812 -8.0625 3.75 -8.0625 C 3.125 -8.0625 2.671875 -7.867188 2.390625 -7.484375 C 2.242188 -7.304688 2.171875 -7.125 2.171875 -6.9375 C 2.171875 -6.75 2.207031 -6.59375 2.28125 -6.46875 C 2.394531 -6.257812 2.640625 -6.035156 3.015625 -5.796875 L 5.296875 -4.3125 C 6.023438 -3.832031 6.390625 -3.210938 6.390625 -2.453125 C 6.390625 -1.609375 6.097656 -0.957031 5.515625 -0.5 C 4.929688 -0.0507812 4.160156 0.171875 3.203125 0.171875 C 2.660156 0.171875 2.160156 0.101562 1.703125 -0.03125 C 1.242188 -0.164062 0.90625 -0.34375 0.6875 -0.5625 C 0.625 -0.71875 0.59375 -0.898438 0.59375 -1.109375 Z M 0.59375 -1.109375 "/></g></g></g><g fill="#ccae50" fill-opacity="1"><g transform="translate(266.989953, 280.503058)"><g><path d="M 0.65625 -0.125 C 0.863281 -0.125 1.039062 -0.195312 1.1875 -0.34375 C 1.34375 -0.488281 1.421875 -0.664062 1.421875 -0.875 L 1.421875 -7.53125 C 1.421875 -7.738281 1.34375 -7.914062 1.1875 -8.0625 C 1.039062 -8.207031 0.863281 -8.28125 0.65625 -8.28125 L 0.5 -8.28125 L 0.5 -8.40625 L 4.15625 -8.40625 L 4.140625 -8.28125 L 4 -8.28125 C 3.789062 -8.28125 3.609375 -8.207031 3.453125 -8.0625 C 3.304688 -7.914062 3.234375 -7.738281 3.234375 -7.53125 L 3.234375 -0.875 C 3.234375 -0.664062 3.304688 -0.488281 3.453125 -0.34375 C 3.609375 -0.195312 3.789062 -0.125 4 -0.125 L 4.140625 -0.125 L 4.15625 0 L 0.5 0 L 0.5 -0.125 Z M 0.65625 -0.125 "/></g></g></g><g fill="#ccae50" fill-opacity="1"><g transform="translate(276.374028, 280.503058)"><g><path d="M 9.796875 -8.28125 C 9.523438 -8.28125 9.316406 -8.160156 9.171875 -7.921875 C 9.109375 -7.816406 9.070312 -7.695312 9.0625 -7.5625 L 9.0625 -1.375 C 9.0625 -0.832031 9.097656 -0.378906 9.171875 -0.015625 L 9.203125 0.171875 L 9.09375 0.171875 L 3.03125 -5.609375 L 3.03125 -0.84375 C 3.03125 -0.644531 3.101562 -0.472656 3.25 -0.328125 C 3.394531 -0.191406 3.566406 -0.125 3.765625 -0.125 L 4 -0.125 L 4 0 L 0.359375 0 L 0.359375 -0.125 L 0.578125 -0.125 C 0.785156 -0.125 0.957031 -0.191406 1.09375 -0.328125 C 1.238281 -0.472656 1.3125 -0.648438 1.3125 -0.859375 L 1.3125 -7.078125 C 1.3125 -7.609375 1.28125 -8.050781 1.21875 -8.40625 L 1.1875 -8.578125 L 1.296875 -8.578125 L 7.359375 -2.8125 L 7.359375 -7.546875 C 7.347656 -7.753906 7.269531 -7.925781 7.125 -8.0625 C 6.976562 -8.207031 6.804688 -8.28125 6.609375 -8.28125 L 6.390625 -8.28125 L 6.390625 -8.40625 L 10.03125 -8.40625 L 10.03125 -8.28125 Z M 9.796875 -8.28125 "/></g></g></g><g fill="#ccae50" fill-opacity="1"><g transform="translate(291.506114, 280.503058)"><g><path d="M 0.65625 -0.125 C 0.863281 -0.125 1.039062 -0.195312 1.1875 -0.34375 C 1.34375 -0.488281 1.421875 -0.664062 1.421875 -0.875 L 1.421875 -7.5625 C 1.410156 -7.769531 1.351562 -7.921875 1.25 -8.015625 C 1.050781 -8.191406 0.851562 -8.28125 0.65625 -8.28125 L 0.5 -8.28125 L 0.5 -8.40625 L 5.09375 -8.40625 C 5.488281 -8.40625 5.8125 -8.429688 6.0625 -8.484375 C 6.320312 -8.546875 6.484375 -8.585938 6.546875 -8.609375 L 6.546875 -6.515625 L 6.421875 -6.53125 L 6.421875 -6.65625 C 6.421875 -7.15625 6.238281 -7.507812 5.875 -7.71875 C 5.695312 -7.820312 5.488281 -7.878906 5.25 -7.890625 L 3.234375 -7.890625 L 3.234375 -4.390625 L 4.8125 -4.390625 C 5.101562 -4.398438 5.34375 -4.5 5.53125 -4.6875 C 5.726562 -4.882812 5.828125 -5.128906 5.828125 -5.421875 L 5.828125 -5.53125 L 5.953125 -5.53125 L 5.953125 -2.765625 L 5.828125 -2.765625 L 5.828125 -2.859375 C 5.828125 -3.148438 5.734375 -3.390625 5.546875 -3.578125 C 5.359375 -3.773438 5.125 -3.878906 4.84375 -3.890625 L 3.234375 -3.890625 L 3.234375 -0.515625 L 4.796875 -0.515625 C 5.378906 -0.515625 5.867188 -0.679688 6.265625 -1.015625 C 6.660156 -1.359375 6.957031 -1.835938 7.15625 -2.453125 L 7.265625 -2.453125 L 6.71875 0 L 0.5 0 L 0.5 -0.125 Z M 0.65625 -0.125 "/></g></g></g></svg>